<?xml version="1.0" encoding="utf-8"?>
<!-- Generator: Adobe Illustrator 26.0.0, SVG Export Plug-In . SVG Version: 6.00 Build 0)  -->
<svg version="1.1" id="Layer_1" xmlns="http://www.w3.org/2000/svg" xmlns:xlink="http://www.w3.org/1999/xlink" x="0px" y="0px"
	 viewBox="0 0 784 306" style="enable-background:new 0 0 784 306;" xml:space="preserve">
<style type="text/css">
	.st0{fill:#FFFFFF;}
</style>
<g>
	<path class="st0" d="M145.94,174.46c-2.73,0-5.38,0-8.02,0c-8.08,0-16.16,0.02-24.23,0.01c-10.24-0.01-17.61-7.48-17.58-17.77
		c0.04-12.67,0.06-25.34,0.05-38.01c0-1.75,0.43-3.14,1.76-4.42c4.01-3.84,7.87-7.84,11.86-11.71c0.56-0.54,1.5-0.99,2.27-0.99
		c23.46-0.05,46.92-0.09,70.38,0c4.95,0.02,9.82,0.84,14.11,3.62c4.4,2.85,6.28,7.25,6.71,12.2c0.4,4.73,0.32,9.5,0.41,14.25
		c0.12,6.14,0.09,12.28,0.31,18.41c0.17,4.75,2.81,7.81,7.28,9.21c1.34,0.42,1.82,1,1.76,2.41c-0.12,2.81-0.03,5.64-0.03,8.44
		c-0.19,0.14-0.31,0.27-0.45,0.31c-6.59,1.75-8.74,6.15-8.81,12.36c-0.09,8.35,0.08,16.71-0.07,25.06
		c-0.05,2.89-0.47,5.85-1.22,8.65c-1.39,5.19-5.14,8.22-10.13,9.84c-6.18,2-12.53,1.63-19.01,1.5c0-3.71,0-7.28,0-11
		c1.9-0.13,3.81-0.24,5.71-0.41c1.1-0.1,2.2-0.25,3.28-0.49c4.17-0.94,6.02-2.96,6.58-7.23c0.19-1.48,0.29-2.97,0.29-4.46
		c0.03-7.3-0.13-14.61,0.08-21.91c0.09-3.17,0.69-6.36,1.41-9.47c0.73-3.16,3.19-5.07,5.81-6.74c0.74-0.47,1.52-0.88,2.8-1.61
		c-0.48-0.18-0.74-0.24-0.98-0.37c-6.27-3.27-8.86-8.79-9.02-15.51c-0.19-7.91,0.03-15.82-0.09-23.73c-0.04-2.4-0.41-4.85-1.03-7.16
		c-0.7-2.64-2.16-3.47-4.9-3.47c-22.57-0.01-45.15-0.01-67.72-0.02c-3.71,0-4.86,1.14-4.86,4.84c0,12.12,0.01,24.23,0.02,36.35
		c0,3.44,1.12,4.52,4.6,4.52c9.79,0,19.59,0,29.38,0c0.38,0,0.77,0,1.33,0C145.94,164.79,145.94,169.55,145.94,174.46z"/>
	<path class="st0" d="M124.3,132.09c2.73,0,5.38,0,8.02,0c8.08,0,16.16-0.02,24.23-0.01c10.24,0.01,17.61,7.48,17.58,17.77
		c-0.04,12.67-0.06,25.34-0.05,38.01c0,1.75-0.43,3.14-1.76,4.42c-4.01,3.84-7.87,7.84-11.86,11.71c-0.56,0.54-1.5,0.99-2.27,0.99
		c-23.46,0.05-46.92,0.09-70.38,0c-4.95-0.02-9.82-0.84-14.11-3.62c-4.4-2.85-6.28-7.25-6.71-12.2c-0.4-4.73-0.32-9.5-0.41-14.25
		c-0.12-6.14-0.09-12.28-0.31-18.41c-0.17-4.75-2.81-7.81-7.28-9.21c-1.34-0.42-1.82-1-1.76-2.41c0.12-2.81,0.03-5.64,0.03-8.44
		c0.19-0.14,0.31-0.27,0.45-0.31c6.59-1.75,8.74-6.15,8.81-12.36c0.09-8.35-0.08-16.71,0.07-25.06c0.05-2.89,0.47-5.85,1.22-8.65
		c1.39-5.19,5.14-8.22,10.13-9.84c6.18-2,12.53-1.63,19.01-1.5c0,3.71,0,7.28,0,11c-1.9,0.13-3.81,0.24-5.71,0.41
		c-1.1,0.1-2.2,0.25-3.28,0.49c-4.17,0.94-6.02,2.96-6.58,7.23c-0.19,1.48-0.29,2.97-0.29,4.46c-0.03,7.3,0.13,14.61-0.08,21.91
		c-0.09,3.17-0.69,6.36-1.41,9.47c-0.73,3.16-3.19,5.07-5.81,6.74c-0.74,0.47-1.52,0.88-2.8,1.61c0.48,0.18,0.74,0.24,0.98,0.37
		c6.27,3.27,8.86,8.79,9.02,15.51c0.19,7.91-0.03,15.82,0.09,23.73c0.04,2.4,0.41,4.85,1.03,7.16c0.7,2.64,2.16,3.47,4.9,3.47
		c22.57,0.01,45.15,0.01,67.72,0.02c3.71,0,4.86-1.14,4.86-4.84c0-12.12-0.01-24.23-0.02-36.35c0-3.44-1.12-4.52-4.6-4.52
		c-9.79,0-19.59,0-29.38,0c-0.38,0-0.77,0-1.33,0C124.3,141.75,124.3,136.99,124.3,132.09z"/>
</g>
<g>
	<path class="st0" d="M361.45,98.36c-1.25-2.29-2.96-4.03-5.15-5.23c-2.18-1.2-4.73-1.79-7.64-1.79c-3.22,0-6.08,0.73-8.58,2.18
		c-2.5,1.46-4.45,3.54-5.85,6.24c-1.4,2.7-2.11,5.82-2.11,9.36c0,3.64,0.71,6.81,2.15,9.52c1.43,2.7,3.42,4.79,5.97,6.24
		c2.55,1.46,5.51,2.18,8.89,2.18c4.16,0,7.57-1.1,10.22-3.31c2.65-2.21,4.39-5.29,5.23-9.24h-18.72v-8.35h29.48v9.52
		c-0.73,3.8-2.29,7.31-4.68,10.53c-2.39,3.22-5.47,5.81-9.24,7.76c-3.77,1.95-8,2.92-12.67,2.92c-5.25,0-10-1.18-14.24-3.55
		c-4.24-2.37-7.57-5.66-9.98-9.87s-3.63-9-3.63-14.35c0-5.36,1.21-10.15,3.63-14.39c2.42-4.24,5.74-7.54,9.98-9.91
		c4.24-2.37,8.96-3.55,14.16-3.55c6.13,0,11.47,1.5,15.99,4.49c4.52,2.99,7.64,7.19,9.36,12.6H361.45z"/>
	<path class="st0" d="M394.37,81.98v54.44h-10.92V81.98H394.37z"/>
	<path class="st0" d="M443.04,98.36c-1.25-2.29-2.96-4.03-5.15-5.23c-2.18-1.2-4.73-1.79-7.64-1.79c-3.23,0-6.08,0.73-8.58,2.18
		c-2.5,1.46-4.45,3.54-5.85,6.24c-1.4,2.7-2.11,5.82-2.11,9.36c0,3.64,0.71,6.81,2.15,9.52c1.43,2.7,3.42,4.79,5.97,6.24
		c2.55,1.46,5.51,2.18,8.89,2.18c4.16,0,7.57-1.1,10.22-3.31c2.65-2.21,4.39-5.29,5.23-9.24h-18.72v-8.35h29.48v9.52
		c-0.73,3.8-2.29,7.31-4.68,10.53c-2.39,3.22-5.47,5.81-9.24,7.76c-3.77,1.95-7.99,2.92-12.67,2.92c-5.25,0-10-1.18-14.24-3.55
		c-4.24-2.37-7.57-5.66-9.98-9.87s-3.63-9-3.63-14.35c0-5.36,1.21-10.15,3.63-14.39c2.42-4.24,5.75-7.54,9.98-9.91
		s8.96-3.55,14.16-3.55c6.13,0,11.46,1.5,15.99,4.49c4.52,2.99,7.64,7.19,9.36,12.6H443.04z"/>
	<path class="st0" d="M498.42,126.05h-21.68l-3.59,10.37h-11.47l19.58-54.52h12.71l19.58,54.52H502L498.42,126.05z M495.45,117.31
		l-7.88-22.78l-7.88,22.78H495.45z"/>
	<path class="st0" d="M324.52,180.73c2.42-4.24,5.72-7.54,9.91-9.91c4.18-2.37,8.88-3.55,14.08-3.55c6.08,0,11.41,1.56,15.99,4.68
		c4.58,3.12,7.77,7.44,9.59,12.95h-12.56c-1.25-2.6-3-4.55-5.26-5.85c-2.26-1.3-4.88-1.95-7.84-1.95c-3.17,0-5.99,0.74-8.46,2.22
		c-2.47,1.48-4.39,3.58-5.77,6.28c-1.38,2.71-2.07,5.88-2.07,9.52c0,3.59,0.69,6.75,2.07,9.48c1.38,2.73,3.3,4.84,5.77,6.32
		c2.47,1.48,5.29,2.22,8.46,2.22c2.96,0,5.58-0.66,7.84-1.99c2.26-1.33,4.02-3.29,5.26-5.89h12.56c-1.82,5.57-5.01,9.89-9.55,12.99
		c-4.55,3.09-9.89,4.64-16.03,4.64c-5.2,0-9.89-1.18-14.08-3.55c-4.19-2.37-7.49-5.66-9.91-9.87s-3.63-9-3.63-14.35
		C320.89,189.76,322.1,184.97,324.52,180.73z"/>
	<path class="st0" d="M411.53,222.42l-12.01-21.22h-5.15v21.22h-10.92v-54.44h20.44c4.21,0,7.8,0.74,10.76,2.22
		c2.96,1.48,5.19,3.48,6.67,6.01c1.48,2.52,2.22,5.34,2.22,8.46c0,3.59-1.04,6.83-3.12,9.71c-2.08,2.89-5.18,4.88-9.28,5.97
		l13.03,22.07H411.53z M394.37,193.01h9.13c2.96,0,5.17-0.71,6.63-2.14c1.46-1.43,2.18-3.42,2.18-5.97c0-2.5-0.73-4.43-2.18-5.81
		c-1.46-1.38-3.67-2.07-6.63-2.07h-9.13V193.01z"/>
	<path class="st0" d="M444.36,176.79v13.65h18.33v8.66h-18.33v14.43h20.67v8.89h-31.59V167.9h31.59v8.89H444.36z"/>
	<path class="st0" d="M508.32,212.05h-21.68l-3.59,10.37h-11.47l19.58-54.52h12.71l19.58,54.52h-11.54L508.32,212.05z
		 M505.36,203.31l-7.88-22.78l-7.88,22.78H505.36z"/>
	<path class="st0" d="M567.84,167.98v8.81h-14.51v45.63h-10.92v-45.63H527.9v-8.81H567.84z"/>
	<path class="st0" d="M586.71,167.98v54.44h-10.92v-54.44H586.71z"/>
	<path class="st0" d="M646.38,167.98l-19.97,54.44h-13.26l-19.97-54.44h11.7l14.98,43.29l14.9-43.29H646.38z"/>
	<path class="st0" d="M663.85,176.79v13.65h18.33v8.66h-18.33v14.43h20.67v8.89h-31.59V167.9h31.59v8.89H663.85z"/>
	<path class="st0" d="M702.97,221.02c-3.04-1.3-5.45-3.17-7.21-5.62c-1.77-2.44-2.68-5.33-2.73-8.66h11.7c0.16,2.24,0.95,4,2.38,5.3
		c1.43,1.3,3.39,1.95,5.89,1.95c2.55,0,4.55-0.61,6.01-1.83c1.46-1.22,2.18-2.82,2.18-4.8c0-1.61-0.49-2.94-1.48-3.98
		c-0.99-1.04-2.22-1.86-3.71-2.46c-1.48-0.6-3.52-1.26-6.12-1.99c-3.54-1.04-6.41-2.07-8.62-3.08c-2.21-1.01-4.11-2.55-5.69-4.6
		c-1.59-2.05-2.38-4.8-2.38-8.23c0-3.22,0.81-6.03,2.42-8.42c1.61-2.39,3.87-4.22,6.79-5.5c2.91-1.27,6.24-1.91,9.98-1.91
		c5.62,0,10.18,1.36,13.69,4.09c3.51,2.73,5.45,6.54,5.81,11.43h-12.01c-0.1-1.87-0.9-3.42-2.38-4.64
		c-1.48-1.22-3.45-1.83-5.89-1.83c-2.13,0-3.83,0.55-5.11,1.64s-1.91,2.68-1.91,4.76c0,1.46,0.48,2.67,1.44,3.63
		c0.96,0.96,2.16,1.74,3.59,2.34c1.43,0.6,3.44,1.29,6.04,2.07c3.54,1.04,6.42,2.08,8.66,3.12c2.24,1.04,4.16,2.6,5.77,4.68
		c1.61,2.08,2.42,4.81,2.42,8.19c0,2.91-0.75,5.62-2.26,8.11c-1.51,2.5-3.72,4.48-6.63,5.97c-2.91,1.48-6.37,2.22-10.37,2.22
		C709.43,222.97,706.01,222.32,702.97,221.02z"/>
</g>
<rect x="264" y="64" class="st0" width="8" height="179"/>
</svg>
