<?xml version="1.0" encoding="utf-8"?>
<!-- Generator: Adobe Illustrator 26.0.0, SVG Export Plug-In . SVG Version: 6.00 Build 0)  -->
<svg version="1.1" id="Layer_1" xmlns="http://www.w3.org/2000/svg" xmlns:xlink="http://www.w3.org/1999/xlink" x="0px" y="0px"
	 viewBox="0 0 1000 434" style="enable-background:new 0 0 1000 434;" xml:space="preserve">
<style type="text/css">
	.st0{fill:#FFFFFF;}
	.st1{font-family:'HandelGothic';}
	.st2{font-size:91.4504px;}
</style>
<g>
	<path class="st0" d="M203.63,241.42c-3.2,0-6.3,0-9.41,0c-9.47,0-18.94,0.02-28.41,0.01c-12-0.01-20.65-8.77-20.61-20.83
		c0.05-14.85,0.07-29.71,0.06-44.56c0-2.06,0.5-3.69,2.06-5.18c4.7-4.51,9.23-9.2,13.9-13.73c0.66-0.64,1.76-1.16,2.66-1.16
		c27.5-0.06,55.01-0.1,82.51,0c5.8,0.02,11.52,0.99,16.54,4.24c5.16,3.34,7.37,8.5,7.86,14.31c0.47,5.54,0.38,11.13,0.48,16.7
		c0.14,7.19,0.11,14.39,0.37,21.58c0.2,5.56,3.3,9.15,8.54,10.79c1.57,0.49,2.13,1.18,2.06,2.83c-0.14,3.3-0.04,6.61-0.04,9.9
		c-0.23,0.16-0.36,0.31-0.53,0.36c-7.73,2.05-10.25,7.21-10.33,14.49c-0.11,9.79,0.1,19.59-0.09,29.38
		c-0.06,3.39-0.55,6.86-1.43,10.14c-1.63,6.09-6.03,9.64-11.88,11.53c-7.25,2.35-14.69,1.91-22.29,1.76c0-4.35,0-8.54,0-12.9
		c2.23-0.16,4.46-0.28,6.7-0.48c1.29-0.12,2.58-0.29,3.84-0.57c4.89-1.1,7.06-3.47,7.71-8.48c0.22-1.73,0.34-3.49,0.34-5.23
		c0.03-8.56-0.15-17.13,0.09-25.69c0.1-3.72,0.81-7.46,1.65-11.1c0.85-3.7,3.74-5.95,6.81-7.9c0.87-0.55,1.78-1.03,3.28-1.89
		c-0.56-0.21-0.87-0.29-1.15-0.43c-7.35-3.83-10.38-10.31-10.57-18.19c-0.22-9.27,0.04-18.55-0.11-27.82
		c-0.04-2.81-0.48-5.68-1.2-8.4c-0.82-3.09-2.53-4.06-5.74-4.06c-26.47-0.01-52.93-0.02-79.4-0.02c-4.35,0-5.7,1.34-5.7,5.67
		c0,14.21,0.01,28.41,0.02,42.62c0,4.03,1.31,5.3,5.4,5.31c11.48,0,22.96,0,34.44,0c0.45,0,0.9,0,1.56,0
		C203.63,230.08,203.63,235.66,203.63,241.42z"/>
	<path class="st0" d="M178.26,191.74c3.2,0,6.3,0,9.41,0c9.47,0,18.94-0.02,28.41-0.01c12,0.01,20.65,8.77,20.61,20.83
		c-0.05,14.85-0.07,29.71-0.06,44.56c0,2.06-0.5,3.69-2.06,5.18c-4.7,4.51-9.23,9.2-13.9,13.73c-0.66,0.64-1.76,1.16-2.66,1.16
		c-27.5,0.06-55.01,0.1-82.51,0c-5.8-0.02-11.52-0.99-16.54-4.24c-5.16-3.34-7.37-8.5-7.86-14.31c-0.47-5.54-0.38-11.13-0.48-16.7
		c-0.14-7.19-0.11-14.39-0.37-21.58c-0.2-5.56-3.3-9.15-8.54-10.79c-1.57-0.49-2.13-1.18-2.06-2.83c0.14-3.3,0.04-6.61,0.04-9.9
		c0.23-0.16,0.36-0.31,0.53-0.36c7.73-2.05,10.25-7.21,10.33-14.49c0.11-9.79-0.1-19.59,0.09-29.38c0.06-3.39,0.55-6.86,1.43-10.14
		c1.63-6.09,6.03-9.64,11.88-11.53c7.25-2.35,14.69-1.91,22.29-1.76c0,4.35,0,8.54,0,12.9c-2.23,0.16-4.46,0.28-6.7,0.48
		c-1.29,0.12-2.58,0.29-3.84,0.57c-4.89,1.1-7.06,3.47-7.71,8.48c-0.22,1.73-0.34,3.49-0.34,5.23c-0.03,8.56,0.15,17.13-0.09,25.69
		c-0.1,3.72-0.81,7.46-1.65,11.1c-0.85,3.7-3.74,5.95-6.81,7.9c-0.87,0.55-1.78,1.03-3.28,1.89c0.56,0.21,0.87,0.29,1.15,0.43
		c7.35,3.83,10.38,10.31,10.57,18.19c0.22,9.27-0.04,18.55,0.11,27.82c0.04,2.81,0.48,5.68,1.2,8.4c0.82,3.09,2.53,4.06,5.74,4.06
		c26.47,0.01,52.93,0.02,79.4,0.02c4.35,0,5.7-1.34,5.7-5.67c0-14.21-0.01-28.41-0.02-42.62c0-4.03-1.31-5.3-5.4-5.3
		c-11.48,0-22.96,0-34.44,0c-0.45,0-0.9,0-1.56,0C178.26,203.07,178.26,197.49,178.26,191.74z"/>
</g>
<text transform="matrix(1 0 0 1 414.9238 196.8193)"><tspan x="0" y="0" class="st0 st1 st2">Giga </tspan><tspan x="0" y="100.83" class="st0 st1 st2">Creatives</tspan></text>
<rect x="343.22" y="109.57" class="st0" width="5.86" height="209.87"/>
</svg>
